<svg width="24" height="19" viewBox="0 0 24 19" fill="none" xmlns="http://www.w3.org/2000/svg">
<path d="M22.085 2.233L24 0.401V0H17.366L12.638 11.768L7.259 0H0.303V0.401L2.54 3.094C2.758 3.293 2.872 3.584 2.843 3.877V14.46C2.912 14.841 2.788 15.233 2.52 15.51L0 18.564V18.96H7.145V18.559L4.625 15.51C4.352 15.232 4.223 14.847 4.278 14.46V5.306L10.55 18.965H11.279L16.672 5.306V16.187C16.672 16.474 16.672 16.533 16.484 16.721L14.544 18.598V19H23.956V18.599L22.086 16.768C21.922 16.644 21.837 16.436 21.872 16.234V2.767C21.837 2.564 21.921 2.356 22.085 2.233Z" fill="white"/>
</svg>
