<svg width="16" height="25" viewBox="0 0 16 25" fill="none" xmlns="http://www.w3.org/2000/svg">
<path d="M13.2297 10.6413C14.1432 10.799 14.7756 11.2721 15.127 11.9029C15.4783 12.5337 15.6891 13.6376 15.6891 15.0568C15.6891 17.8954 14.9162 20.2608 13.3703 22.0743C11.8244 23.8878 9.85688 24.834 7.46777 24.834C6.55429 24.834 5.64081 24.6763 4.72733 24.2821C3.81385 23.8878 3.11117 23.3359 2.47876 22.7051C1.77608 21.9955 1.21394 21.1282 0.862602 20.3397C0.581531 19.4723 0.370728 18.605 0.370728 17.7377C0.370728 16.7915 0.581531 16.003 0.93287 15.4511C1.28421 14.8992 1.91662 14.5838 2.68956 14.3472C2.54903 13.953 2.40849 13.6376 2.33823 13.3222C2.26796 13.0856 2.19769 12.8491 2.19769 12.6914C2.19769 12.2183 2.40849 11.6664 2.90037 11.1144C3.39224 10.5625 3.81385 10.326 4.23546 10.326C4.44626 10.326 4.58679 10.326 4.7976 10.4048C5.0084 10.4837 5.2192 10.5625 5.50028 10.799C4.86787 8.4336 4.23546 6.46239 3.88412 5.12197C3.53278 3.78155 3.39224 2.91422 3.39224 2.36228C3.39224 1.65265 3.53278 1.10071 3.88412 0.706469C4.16519 0.312228 4.65706 0.0756836 5.2192 0.0756836C6.13268 0.0756836 7.32724 2.44113 8.80286 7.25087C9.08393 8.03936 9.22447 8.67014 9.365 9.14323C9.50554 8.82784 9.64607 8.2759 9.85688 7.64511C11.3325 2.91422 12.5973 0.548773 13.5811 0.548773C14.0729 0.548773 14.4946 0.706469 14.8459 1.10071C15.127 1.49495 15.3378 2.04689 15.3378 2.67768C15.3378 3.15076 15.1972 4.09694 14.8459 5.43736C14.4243 6.77778 13.9324 8.51245 13.2297 10.6413ZM2.40849 17.58C2.54903 17.7377 2.75983 18.0531 2.97064 18.4473C3.60305 19.4723 4.23546 20.0243 4.7976 20.0243C5.0084 20.0243 5.14894 19.9454 5.28947 19.7877C5.43001 19.63 5.50028 19.4723 5.50028 19.3935C5.50028 19.2358 5.43001 18.9204 5.2192 18.5262C5.0084 18.1319 4.72733 17.6588 4.37599 17.1858C3.95438 16.6338 3.60304 16.1607 3.39224 15.9242C3.11117 15.6876 2.90037 15.5299 2.75983 15.5299C2.40849 15.5299 2.05715 15.7665 1.77608 16.1607C1.49501 16.555 1.35448 17.1069 1.35448 17.6588C1.35448 18.1319 1.42474 18.605 1.63555 19.2358C1.84635 19.7877 2.12742 20.4185 2.54903 20.9705C3.18144 21.7589 3.88412 22.4686 4.7976 22.9417C5.71108 23.4148 6.62456 23.6513 7.74884 23.6513C9.71634 23.6513 11.3325 22.8628 12.6676 21.207C14.0027 19.5512 14.6351 17.5011 14.6351 14.978C14.6351 14.1895 14.5648 13.6376 14.4945 13.1645C14.4243 12.6914 14.2135 12.376 14.0027 12.2183C13.5811 11.8241 12.8081 11.5087 11.6136 11.1933C10.419 10.8779 9.1542 10.7202 7.88938 10.7202C7.53804 10.7202 7.25697 10.799 7.11643 10.9567C6.9759 11.1144 6.90563 11.351 6.90563 11.6664C6.90563 12.4549 7.25697 13.0068 8.02991 13.3222C8.80286 13.6376 10.0677 13.8741 11.7541 13.8741H12.3865C12.5271 13.8741 12.6676 13.953 12.7379 14.0318C12.8081 14.1895 12.8784 14.3472 12.8784 14.5838C12.7379 14.7415 12.3865 14.978 11.8244 15.2145C11.2622 15.4511 10.9109 15.6876 10.6298 15.9242C9.99741 16.3973 9.50554 17.0281 9.1542 17.7377C8.80286 18.4473 8.59206 19.0781 8.59206 19.7089C8.59206 20.1031 8.66232 20.4974 8.80286 21.0493C8.9434 21.6013 9.01366 21.9166 9.01366 21.9955V22.1532V22.3109C8.59206 22.3109 8.24072 21.9955 7.95965 21.4436C7.67858 20.8916 7.60831 20.182 7.60831 19.2358V19.0781C7.53804 19.157 7.46777 19.2358 7.3975 19.2358C7.32724 19.2358 7.25697 19.3147 7.11643 19.3147H6.83536C6.76509 19.3147 6.69483 19.2358 6.55429 19.2358C6.55429 19.3935 6.62456 19.4724 6.62456 19.63V19.9454C6.62456 20.3397 6.48402 20.7339 6.20295 21.0493C5.92188 21.3647 5.57054 21.5224 5.14894 21.5224C4.51653 21.5224 3.88412 21.207 3.18144 20.4974C2.54903 19.7877 2.19769 19.157 2.19769 18.4473C2.19769 18.2896 2.19769 18.2108 2.26796 18.1319C2.26796 17.7377 2.33823 17.6588 2.40849 17.58ZM6.9759 17.9742C7.11643 17.9742 7.32724 17.8954 7.46777 17.7377C7.60831 17.58 7.67858 17.3434 7.67858 17.1858C7.67858 16.9492 7.53804 16.4761 7.25697 15.6876C6.9759 14.8992 6.62456 14.1107 6.20295 13.401C5.92188 12.8491 5.57054 12.376 5.28947 12.1395C5.0084 11.8241 4.72733 11.7452 4.44626 11.7452C4.23546 11.7452 4.02465 11.9029 3.74358 12.2183C3.46251 12.5337 3.39224 12.7703 3.39224 13.0856C3.39224 13.3222 3.53278 13.7953 3.74358 14.3472C4.02465 14.8992 4.30572 15.4511 4.72733 16.0819C5.14894 16.7127 5.57054 17.2646 5.99215 17.6588C6.41376 17.8165 6.69483 17.9742 6.9759 17.9742ZM8.45152 9.77402L6.7651 4.49118C6.34349 3.15076 6.06242 2.20459 5.78135 1.81034C5.57054 1.4161 5.35974 1.17956 5.07867 1.17956C4.86787 1.17956 4.72733 1.25841 4.58679 1.4161C4.37599 1.65265 4.30572 1.88919 4.30572 2.20459C4.30572 2.75652 4.51653 3.62385 4.86787 4.88543C5.2192 6.147 5.78135 7.88166 6.48402 9.93171C6.55429 9.77402 6.62456 9.69517 6.7651 9.69517C6.90563 9.61632 7.04617 9.61632 7.1867 9.61632H7.53804C7.74884 9.69517 8.02991 9.69517 8.45152 9.77402ZM10.1379 14.8992C9.71634 14.8992 9.29473 14.8203 8.87313 14.7415C8.45152 14.6626 8.10018 14.5838 7.74884 14.4261C7.88938 14.8203 8.02991 15.1357 8.17045 15.5299C8.31099 15.9242 8.38125 16.2396 8.45152 16.6338C8.66232 16.3184 8.9434 16.003 9.22447 15.6876C9.57581 15.3722 9.85688 15.1357 10.1379 14.8992ZM12.1757 10.326C12.8784 8.2759 13.3703 6.54124 13.7919 5.20082C14.1432 3.8604 14.354 3.07192 14.354 2.75652C14.354 2.44113 14.2837 2.20459 14.1432 1.96804C14.0027 1.81034 13.8621 1.7315 13.6513 1.7315C13.3703 1.7315 13.0892 1.96804 12.8081 2.51998C12.5271 3.07192 12.1757 3.8604 11.8244 5.04312L10.2785 9.93171L12.1757 10.326Z" fill="white"/>
</svg>
